<mxfile host="app.diagrams.net" modified="2023-08-21T10:42:37.312Z" agent="Mozilla/5.0 (Windows NT 10.0; Win64; x64) AppleWebKit/537.36 (KHTML, like Gecko) Chrome/115.0.0.0 Safari/537.36" etag="t2Dw1ZFRl1PkJIZ3KLLz" version="21.6.8" type="github">
  <diagram name="Page-1" id="VZODMzliZemgseHfw8bb">
    <mxGraphModel dx="794" dy="432" grid="1" gridSize="10" guides="1" tooltips="1" connect="1" arrows="1" fold="1" page="1" pageScale="1" pageWidth="850" pageHeight="1100" math="0" shadow="0">
      <root>
        <mxCell id="0" />
        <mxCell id="1" parent="0" />
        <mxCell id="pgZ6443vS1IIYW8wK6RY-2" value="" style="rounded=0;whiteSpace=wrap;html=1;" vertex="1" parent="1">
          <mxGeometry x="40" y="20" width="730" height="380" as="geometry" />
        </mxCell>
        <mxCell id="pgZ6443vS1IIYW8wK6RY-3" value="&lt;font style=&quot;font-size: 14px;&quot; face=&quot;Garamond&quot;&gt;Keystone Bank Blue Banner&lt;/font&gt;" style="rounded=0;whiteSpace=wrap;html=1;fillColor=#0050ef;fontColor=#ffffff;strokeColor=#001DBC;" vertex="1" parent="1">
          <mxGeometry x="40" y="20" width="730" height="100" as="geometry" />
        </mxCell>
      </root>
    </mxGraphModel>
  </diagram>
</mxfile>
